<?xml version="1.0" standalone="no"?>
<!DOCTYPE svg PUBLIC "-//W3C//DTD SVG 20010904//EN"
 "http://www.w3.org/TR/2001/REC-SVG-20010904/DTD/svg10.dtd">
<svg version="1.0" xmlns="http://www.w3.org/2000/svg"
 width="408.000000pt" height="86.000000pt" viewBox="0 0 408.000000 86.000000"
 preserveAspectRatio="xMidYMid meet">

<g transform="translate(0.000000,86.000000) scale(0.100000,-0.100000)"
fill="#000000" stroke="none">
<path d="M657 722 c-5 -23 -15 -35 -39 -46 -26 -11 -28 -15 -12 -15 27 -1 54
-31 55 -62 0 -20 2 -18 12 11 9 26 20 38 45 46 l34 11 -33 9 c-24 7 -35 18
-44 44 l-12 34 -6 -32z"/>
<path d="M431 635 c-4 -149 -61 -203 -218 -206 -55 -1 -53 -2 34 -14 51 -6
104 -20 118 -29 35 -23 54 -70 64 -159 l8 -72 2 55 c2 73 30 149 63 173 17 13
57 24 120 32 l93 11 -81 5 c-135 9 -178 49 -193 180 -8 67 -9 69 -10 24z"/>
<path d="M883 586 c-28 -24 -28 -26 -28 -134 0 -103 2 -112 24 -136 45 -48
148 -26 164 34 7 29 -20 26 -49 -5 -28 -30 -57 -32 -84 -5 -17 17 -20 33 -20
104 0 99 5 114 36 127 30 11 74 -5 74 -26 0 -8 9 -15 20 -15 27 0 25 26 -5 55
-33 34 -93 34 -132 1z"/>
<path d="M1387 603 c-4 -3 -7 -75 -7 -160 0 -146 1 -153 20 -153 18 0 20 7 20
70 l0 70 70 0 c63 0 70 2 70 20 0 18 -7 20 -70 20 l-70 0 0 50 0 50 75 0 c68
0 75 2 75 20 0 18 -7 20 -88 20 -49 0 -92 -3 -95 -7z"/>
<path d="M2580 561 l0 -49 -29 14 c-59 29 -110 -6 -118 -80 -7 -60 4 -113 28
-137 27 -27 82 -25 109 3 l20 22 0 -22 c0 -13 6 -22 15 -22 13 0 15 24 15 160
0 153 -1 160 -20 160 -17 0 -20 -7 -20 -49z m-12 -73 c7 -7 12 -39 12 -74 0
-69 -15 -94 -55 -94 -33 0 -55 36 -55 90 0 25 7 56 16 68 17 24 62 30 82 10z"/>
<path d="M3546 558 c-55 -192 -72 -263 -64 -266 21 -9 36 9 43 48 l7 41 51 -3
52 -3 9 -42 c7 -35 13 -43 31 -43 l23 0 -29 108 c-16 59 -35 130 -42 157 -11
43 -17 50 -40 53 -24 3 -27 -1 -41 -50z m74 -135 c0 -8 -14 -13 -35 -13 -41 0
-42 4 -18 98 l17 67 18 -70 c9 -38 18 -76 18 -82z"/>
<path d="M3760 590 c0 -16 7 -20 35 -20 l35 0 0 -125 0 -125 -35 0 c-24 0 -35
-5 -35 -15 0 -12 17 -15 90 -15 73 0 90 3 90 15 0 10 -11 15 -35 15 l-35 0 0
125 0 125 35 0 c28 0 35 4 35 20 0 19 -7 20 -90 20 -83 0 -90 -1 -90 -20z"/>
<path d="M1164 526 c-59 -26 -74 -158 -24 -211 33 -35 107 -35 139 -2 42 45
37 183 -7 206 -34 17 -78 20 -108 7z m90 -48 c23 -33 21 -113 -4 -138 -46 -46
-100 -9 -100 68 0 27 7 57 16 70 20 30 68 30 88 0z"/>
<path d="M1692 525 c-38 -17 -52 -48 -52 -116 0 -54 20 -103 45 -113 39 -15
96 -6 120 19 22 21 25 33 25 98 0 63 -3 76 -22 94 -31 28 -76 35 -116 18z m79
-35 c16 -9 19 -22 19 -75 0 -69 -14 -95 -52 -95 -40 0 -58 28 -58 88 0 80 35
111 91 82z"/>
<path d="M2237 520 c-22 -18 -27 -19 -27 -6 0 9 -8 16 -20 16 -19 0 -20 -7
-20 -120 0 -113 1 -120 20 -120 19 0 20 7 20 89 0 98 11 121 55 121 44 0 55
-23 55 -121 0 -82 1 -89 20 -89 19 0 20 7 20 94 0 84 -3 98 -22 120 -33 36
-68 42 -101 16z"/>
<path d="M2765 533 c-11 -3 -30 -14 -42 -26 -20 -18 -23 -30 -23 -97 0 -67 3
-79 23 -98 31 -29 105 -30 138 -3 33 26 17 37 -31 21 -44 -15 -90 -3 -90 24 0
8 -3 21 -6 30 -5 14 5 16 75 16 l81 0 0 29 c0 50 -18 81 -55 96 -36 16 -37 16
-70 8z m67 -50 c10 -9 18 -25 18 -35 0 -17 -7 -19 -57 -16 -52 3 -58 5 -55 23
8 46 58 61 94 28z"/>
<path d="M3053 530 c-12 -5 -26 -17 -32 -27 -10 -16 -10 -16 -11 5 0 15 -6 22
-20 22 -19 0 -20 -7 -20 -120 0 -113 1 -120 20 -120 18 0 20 7 20 83 0 100 15
130 63 125 25 -2 35 -10 46 -35 18 -41 41 -43 41 -4 0 54 -57 92 -107 71z"/>
<path d="M1910 435 c0 -88 2 -98 25 -120 32 -33 105 -35 135 -5 17 17 20 33
20 120 0 93 -1 100 -20 100 -19 0 -20 -7 -20 -93 0 -99 -7 -117 -46 -117 -43
0 -54 24 -54 121 0 82 -1 89 -20 89 -19 0 -20 -7 -20 -95z"/>
<path d="M115 287 l-20 -22 23 -22 c16 -17 22 -18 22 -7 0 8 10 18 22 23 l23
8 -22 7 c-12 4 -23 13 -25 21 -2 11 -8 9 -23 -8z"/>
</g>
</svg>
